<?xml version="1.0" standalone="no"?>
<!DOCTYPE svg PUBLIC "-//W3C//DTD SVG 20010904//EN" "http://www.w3.org/TR/2001/REC-SVG-20010904/DTD/svg10.dtd">
<!-- Created using Krita: https://krita.org -->
<svg xmlns="http://www.w3.org/2000/svg" 
    xmlns:xlink="http://www.w3.org/1999/xlink"
    xmlns:krita="http://krita.org/namespaces/svg/krita"
    xmlns:sodipodi="http://sodipodi.sourceforge.net/DTD/sodipodi-0.dtd"
    width="62.8732pt"
    height="114.592pt"
    viewBox="0 0 62.8732 114.592">
<defs/>
<g id="group0" transform="matrix(1.01408450704225 0 0 1.01408450704225 0 0)" fill="none">
  <g id="alsace" fill="none">
   <path id="shape0" fill="red" stroke="purple" stroke-opacity="" stroke-width="3" stroke-linecap="" stroke-linejoin="" d="M0.0249277 80.7C4.42493 76.1 13.2249 58.1 13.4249 53.1C13.8249 45.1 2.42493 42.3 5.82493 37.7C8.12493 34.5 13.6249 35 14.9249 31.8C16.7249 27.7 16.4249 22.9 15.7249 19.3C14.9249 14.9 4.82493 18.3 1.92493 12.2C-0.0750723 7.8 4.92493 1.5 9.52493 2.3C14.7249 3.2 14.5249 8.6 23.3249 7.6C30.5249 6.8 28.9249 4 32.7249 0C35.4249 1.7 39.7249 2.4 44.5249 2.3C48.4249 2.3 50.9249 4.1 51.7249 5.7C52.1249 6.4 53.2249 8.8 51.2249 15.1C50.2249 18 48.3249 21.7 46.9249 24.4C46.7249 24.7 43.0249 32 40.2249 38.8C38.4249 43.1 36.2249 50.6 35.3249 55.5C34.4249 60.4 35.1249 64.1 32.0249 73.3C31.7249 74.3 30.5249 77.5 29.6249 82.8C28.9249 86.8 29.3249 91.1 31.9249 94.4C32.9249 95.6 34.6249 97.3 34.4249 98.7C34.2249 100.1 29.7249 101.8 27.7249 103.3C26.9249 103.9 20.8249 106.4 13.9249 103C11.8249 101.3 9.82493 98.8 7.82493 96.1C6.72493 94.5 13.9249 91.1 13.0249 89.5C9.82493 83.8 -0.575072 80.5 0.0249277 80.7Z"/>
  </g>
 </g>
</svg>
