<?xml version="1.0" standalone="no"?>
<!DOCTYPE svg PUBLIC "-//W3C//DTD SVG 20010904//EN" "http://www.w3.org/TR/2001/REC-SVG-20010904/DTD/svg10.dtd">
<!-- Created using Krita: https://krita.org -->
<svg xmlns="http://www.w3.org/2000/svg" 
    xmlns:xlink="http://www.w3.org/1999/xlink"
    xmlns:krita="http://krita.org/namespaces/svg/krita"
    xmlns:sodipodi="http://sodipodi.sourceforge.net/DTD/sodipodi-0.dtd"
    width="262.648pt"
    height="195.718pt"
    viewBox="0 0 262.648 195.718">
<defs/>

<g id="group0" transform="matrix(1.01408450704225 0 0 1.01408450704225 0 0)" fill="none">
<a href="/region/ara">
  <g id="auvergne" fill="none">
   <path id="shape0" transform="translate(14.95, 11.1)" fill="#ff0000" stroke="#ffff00" stroke-width="3" stroke-linecap="butt" stroke-linejoin="miter" stroke-miterlimit="2" d="M76.5 17.2C75.4 15 74.9 11.8 74.1 9.4C73.6 8 72.9 6.8 72.1 6.6C70.2 6 68.1 6.3 65.9 6.4C63.3 6.4 60.7 6.3 58.4 6.1C53.3 5.7 49.4 4.4 46.4 2.8C44.3 1.7 43 0.6 42.2 0C40.7 1.9 39.5 2.7 37.9 3.4C35.4 4.4 27.7 3.2 25.9 5.3C24.6 6.9 25.5 10.6 25.3 12.8C25.1 15.3 24.8 15.3 24.5 15.7C23 18.8 14.6 17.7 13.2 20.7C12.4 22.3 11.8 25.3 11.3 27C10.9 28.4 10.7 28.6 10.1 29.2C13.3 33.1 20.5 34.3 22.6 38.2C24.6 41.8 23.2 46.7 23.7 49C26.6 62.1 16.5 57.9 15.9 64.3C15.1 72.6 22.6 84.1 22.4 88.7C22.2 91.7 12.4 93.2 8.5 96.9C3.3 101.7 3.7 109.6 3.7 112.1C3.7 115.3 1.3 118.3 0 120C0.4 122.2 0.9 124.3 1.4 126C2.3 129.1 2.6 133.4 2.8 135.5C3.2 139.7 3.2 140.3 4.7 140.9C5.5 141.2 6.5 139.9 7.6 138.9C8.4 138.2 9.2 137.7 9.7 137.6C10.7 137.3 12.3 136.8 13.9 136.5C15.7 136.2 17.5 136.2 18.6 135.6C25.6 132.1 25.5 120.9 28.4 121.2C32.2 121.6 35.2 125.9 36.5 128C40.1 133.8 40.7 137.2 41.3 138.5C41.9 136 43.4 132.9 44.2 131.7C45.8 129.3 47.8 126.3 50.3 125.2C50.7 125 51.4 124.9 51.8 124.8C52.5 124.6 53.1 124.3 53.7 124.1C55 123.7 56.2 123.1 57.4 122.8C57.9 122.7 58.4 122.7 58.8 122.7C60.5 122.5 62.3 125.3 64.3 127.2C65.4 128.3 66.5 128.7 67 128.6C67.6 128.5 68.7 126.9 69.5 125.9C69.9 125.4 70.4 125.2 70.5 125.2C71.6 125 75.2 128.1 76.6 129C81.3 132 83.5 133 85.8 134.5C85.6 133.4 85.3 131.3 85.3 130.8C86.2 120.8 102.3 125.1 101.3 115.3C100.7 109.8 117 101.9 112.2 101.7C109.1 101.6 106.4 101.5 104.2 101.4C101.2 101.2 107.5 91.9 104.7 92C101.2 92.1 97.9 92.4 95 93C84.3 95.4 82.8 93.1 84.4 83.7C86 73.7 75.2 68.5 74.4 65.8C71.4 56 76.6 56.6 77.6 49.9C78.3 45.3 75.5 39.1 76.3 37.5C77 36.1 81 32.9 83.9 32.9C84.2 32.1 84.4 31.3 84.8 30C85.1 29.1 85.2 27.5 84.9 26.8C84.3 25.2 82 23.5 80.1 21.8C78.8 20.2 77.4 18.8 76.5 17.2Z"/>
  </g>
  </a>
 </g>
 <g id="group1" transform="matrix(1.01408450704225 0 0 1.01408450704225 0 0)" fill="none">
 <a href="/region/ara">
  <g id="rhone_alpes" fill="none">
   <path id="shape1" transform="translate(88.4285963799918, 26.7046746116065)" fill="#008000" stroke="#800080" stroke-width="3" stroke-linecap="butt" stroke-linejoin="miter" stroke-miterlimit="2" d="M72.2214 4.99533C73.3214 9.79533 76.9214 11.7953 78.5214 14.8953C80.3214 18.2953 85.4214 6.59533 87.4214 9.39533C89.4214 12.1953 91.9214 12.3953 93.9214 14.1953C97.2214 17.2953 103.921 4.69533 107.921 6.39533C107.921 6.89533 108.121 7.79533 108.421 8.49533C109.221 10.0953 112.221 11.2953 109.321 14.5953C103.421 21.3953 104.621 23.1953 109.721 24.1953C117.321 25.5953 120.221 15.4953 119.921 11.5953C121.921 9.49533 127.121 6.99533 127.921 6.79533C132.321 5.69533 133.021 5.69533 139.321 7.19533C140.821 15.5953 143.821 22.1953 145.421 25.0953C146.221 26.4953 155.021 33.3953 155.021 33.3953C155.021 33.3953 151.721 36.0953 150.121 38.3953C144.921 45.7953 149.921 55.1953 155.121 59.5953C159.921 63.6953 160.621 69.7953 160.321 72.6953C159.721 79.6953 153.421 83.8953 148.821 86.1953C142.121 89.5953 140.521 91.6953 140.221 93.0953C138.921 93.0953 137.621 92.8953 136.221 92.3953C122.121 87.3953 118.021 91.1953 117.021 92.4953C114.721 95.3953 127.921 101.895 124.521 105.595C122.321 107.895 114.421 104.795 112.121 107.395C104.421 116.095 97.3214 123.695 91.8214 129.395C89.8214 131.395 87.0214 131.795 85.1214 132.495C82.6214 133.295 81.5214 134.195 84.2214 135.095C93.2214 137.895 94.9214 148.195 96.0214 150.395C100.521 159.195 81.1214 154.795 75.8214 154.295C72.2214 153.995 74.5214 146.095 71.5214 145.295C66.6214 144.095 60.4214 150.595 58.0214 151.395C56.1214 152.095 54.4214 147.795 52.5214 147.095C50.2214 146.195 47.3214 146.895 45.0214 145.995C39.5214 143.795 30.2214 147.595 25.7214 147.495C23.6214 147.395 20.2214 146.695 19.2214 143.295C16.1214 133.195 11.5214 118.495 11.8214 115.295C12.7214 105.295 28.8214 109.595 27.8214 99.7953C27.2214 94.2953 43.5214 86.3953 38.7214 86.1953C35.6214 86.0953 32.9214 85.9953 30.7214 85.8953C27.7214 85.6953 34.0214 76.3953 31.2214 76.4953C27.7214 76.5953 24.4214 76.8953 21.5214 77.4953C10.8214 79.8953 9.3214 77.5953 10.9214 68.1953C12.5214 58.1953 1.7214 52.9953 0.921404 50.2953C-2.0786 40.4953 3.1214 41.0953 4.1214 34.3953C4.8214 29.7953 2.0214 23.5953 2.8214 21.9953C3.7214 20.1953 9.5214 15.8953 12.2214 17.8953C15.4214 20.2953 16.2214 25.8953 19.7214 27.2953C24.0214 28.9953 31.8214 23.3953 32.6214 22.0953C34.0214 19.8953 34.5214 16.1953 36.0214 14.6953C39.2214 11.4953 46.8214 15.6953 49.1214 15.2953C51.1214 14.9953 47.2214 20.8953 50.2214 21.2953C51.1214 21.3953 51.6214 20.2953 52.2214 19.5953C54.3214 16.9953 53.2214 7.19533 55.1214 4.89533C56.8214 2.89533 58.4214 2.09533 59.7214 0.495325C60.9214 -0.904675 63.2214 0.995325 65.8214 2.09533C68.7214 3.39533 72.0214 4.29533 72.2214 4.99533Z"/>
  </g>
  </a>
 </g><text id="shape2" krita:useRichText="true" transform="translate(35.806369299277, 111.380606909664)" fill="#28d940" stroke="#000000" stroke-opacity="0" stroke-width="0" stroke-linecap="square" stroke-linejoin="bevel" font-family="Arial Rounded MT Bold" font-size="8" font-size-adjust="0.222222" font-stretch="normal" letter-spacing="0" word-spacing="0"><tspan x="0">AUVERGNE</tspan></text><text id="shape3" krita:useRichText="true" transform="translate(143.573111850499, 95.0417782002852)" fill="#800000" stroke="#000000" stroke-opacity="0" stroke-width="0" stroke-linecap="square" stroke-linejoin="bevel" font-family="Arial Rounded MT Bold" font-size="8" font-size-adjust="0.222222" font-stretch="normal" letter-spacing="0" word-spacing="0"><tspan x="0">RHONE-ALPES</tspan></text>
</svg>
