<?xml version="1.0" standalone="no"?>
<!DOCTYPE svg PUBLIC "-//W3C//DTD SVG 20010904//EN" "http://www.w3.org/TR/2001/REC-SVG-20010904/DTD/svg10.dtd">
<!-- Created using Krita: https://krita.org -->
<svg xmlns="http://www.w3.org/2000/svg" 
    xmlns:xlink="http://www.w3.org/1999/xlink"
    xmlns:krita="http://krita.org/namespaces/svg/krita"
    xmlns:sodipodi="http://sodipodi.sourceforge.net/DTD/sodipodi-0.dtd"
    width="141.972pt"
    height="190.648pt"
    viewBox="0 0 141.972 190.648">
<defs/>
<g id="group0" transform="matrix(1.01408450704225 0 0 1.01408450704225 0 0)" fill="none">
  <g id="champagne_ardenne" fill="none">
   <path id="shape0" transform="translate(8.93754270588244, 11.0931400128697)" fill="red" stroke="green" stroke-opacity="" stroke-width="3" stroke-linecap="square" stroke-linejoin="bevel" d="M1.11246 92.4069C-1.28754 86.9069 0.0124573 86.7069 6.81246 83.7069C9.41246 82.6069 11.6125 80.3069 13.5125 77.2069C14.6125 75.4069 9.11246 70.4069 10.0125 68.1069C10.7125 66.2069 13.1125 68.1069 13.8125 66.1069C15.1125 62.3069 10.4125 59.9069 11.4125 55.7069C13.0125 49.2069 26.7125 54.0069 28.9125 48.1069C32.2125 39.2069 24.7125 34.2069 29.0125 31.1069C31.5125 29.3069 34.0125 29.4069 35.6125 26.1069C37.3125 22.5069 35.3125 16.3069 42.5125 12.5069C43.7125 13.3069 46.1125 14.0069 48.4125 12.0069C50.5125 10.1069 51.0125 8.80686 54.2125 3.10686C55.8125 0.30686 58.0125 -0.79314 59.6125 0.60686C62.3125 2.80686 56.6125 10.4069 58.4125 15.9069C59.6125 19.6069 63.5125 21.1069 72.9125 25.5069C75.5125 26.8069 83.0125 32.3069 85.0125 33.9069C84.5125 34.5069 82.8125 36.4069 80.7125 37.0069C79.2125 37.4069 76.5125 34.5069 74.7125 34.8069C73.5125 35.0069 72.3125 37.0069 71.2125 39.9069C70.4125 42.0069 74.7125 46.6069 73.9125 49.2069C73.2125 51.6069 71.1125 52.8069 69.6125 54.8069C68.6125 56.1069 71.6125 69.1069 69.6125 74.0069C69.0125 75.5069 67.6125 75.7069 66.7125 77.0069C65.0125 79.5069 69.8125 96.0069 74.1125 100.307C75.1125 101.307 82.1125 103.807 87.9125 109.807C89.7125 111.707 89.1125 115.507 91.0125 117.707C92.8125 119.807 97.6125 117.707 99.5125 119.807C103.112 123.807 101.012 135.007 103.812 139.107C105.612 141.707 108.012 140.107 109.912 141.707C108.012 144.207 105.812 146.807 103.612 149.207C102.312 150.607 107.212 159.107 105.912 160.307C102.112 163.907 93.0125 161.307 92.1125 161.307C89.7125 161.307 90.0125 165.607 86.3125 168.907C83.3125 171.607 77.4125 157.707 72.8125 159.607C71.1125 160.307 70.5125 152.807 68.0125 147.007C65.3125 140.907 60.8125 136.307 59.0125 138.307C58.0125 139.407 56.4125 142.107 54.2125 144.107C50.9125 147.107 49.6125 141.007 45.7125 143.307C43.6125 144.507 38.2125 143.507 33.8125 144.107C29.6125 144.707 29.2125 149.207 25.4125 146.607C22.7125 144.707 21.3125 139.007 18.3125 135.507C16.3125 133.107 12.3125 133.007 10.3125 130.407C7.41246 126.707 7.91246 121.207 5.71246 117.107C5.21246 116.107 4.51246 115.107 4.11246 114.107C3.31246 112.107 8.41246 102.607 6.91246 99.4069C4.61246 94.8069 2.81246 96.4069 1.11246 92.4069Z"/>
  </g>
 </g><text id="shape1" krita:useRichText="true" transform="translate(-5.06682010356995, 109.510944887799)" fill="#ffdb18" stroke="#000000" stroke-opacity="0" stroke-width="0" stroke-linecap="square" stroke-linejoin="bevel" font-family="Arial Rounded MT Bold" font-size="8" font-size-adjust="0.222222" font-stretch="normal" letter-spacing="0" word-spacing="0"><tspan x="0">CHAMPAGNE-ARDENNE</tspan></text>
</svg>
