<?xml version="1.0" encoding="utf-8"?>
<!-- Generator: Adobe Illustrator 25.2.3, SVG Export Plug-In . SVG Version: 6.00 Build 0)  -->
<svg version="1.2" baseProfile="tiny" id="Calque_1"
	 xmlns="http://www.w3.org/2000/svg" xmlns:xlink="http://www.w3.org/1999/xlink" x="0px" y="0px" viewBox="0 0 113 102"
	 overflow="visible" xml:space="preserve">
<a>
	<g id="ile_de_france">
		<path fill="#020203" d="M59.55,23.9c4.1,2.8,13.4,8.3,21.2,2.4c4.8-3.6,16.3,16.5,23,13.5c-2.3,1.2-5.9,2.2-6.5,3.8
			c-0.8,2,0.7,4.3,1.1,5.6c0.6,1.8,3.3,3.2,4.2,4.4c1.4,1.9,1.6,3.3,1.3,4.5c-1,4.9-3.1,9.7-3.1,11.9c-4.3,3.2-13.5,3.1-15.1,4.1
			c-5.6,3.5-2,11.1-5,12.1s-7.7-0.8-9.2-0.8c-3.8,0.2-7.2,4.9-10.2,3.4c-4.6-2.4-0.5-10.7-6.9-12.5c-6.5-1.8-12.6,4.1-17.7,1.8
			c-5.2-2.4-3.5-8.3-7.8-11c-3.6-2.2-6.4-1.5-8.2-5.4c-3-6.6-3.1-18.8-6.3-20.1c-2-0.8-3.6-1.1-4.5-1.2c0.2-0.4,0.5-1,0.8-1.4
			c0.9-1.3,3.9-4.2,4.6-5.8c0.7-1.5,0.9-3.3,1.5-4.8c0.8-2.2,2-4.1,3-5.7c2.3-3.8,6.4-6,8-6.4c0.4,2.1,1.2,3.2,2.5,2.7
			C35.35,17,45.75,14.7,59.55,23.9z"/>
	</g>
</a>
</svg>
