<?xml version="1.0" standalone="no"?>
<!DOCTYPE svg PUBLIC "-//W3C//DTD SVG 20010904//EN" "http://www.w3.org/TR/2001/REC-SVG-20010904/DTD/svg10.dtd">
<!-- Created using Krita: https://krita.org -->
<svg xmlns="http://www.w3.org/2000/svg" 
    xmlns:xlink="http://www.w3.org/1999/xlink"
    xmlns:krita="http://krita.org/namespaces/svg/krita"
    xmlns:sodipodi="http://sodipodi.sourceforge.net/DTD/sodipodi-0.dtd"
    width="227.155pt"
    height="190.648pt"
    viewBox="0 0 227.155 190.648">
<defs/>
<g id="group0" transform="matrix(1.01408450704225 0 0 1.01408450704225 0 0)" fill="none">
  <g id="lorraine" fill="none">
   <path id="shape0" transform="translate(74.9989517778372, 44.6)" fill="red" stroke="blue" stroke-opacity="" stroke-width="3" stroke-linecap="square" stroke-linejoin="bevel" d="M18.651 0C18.151 0.6 16.451 2.5 14.351 3.1C12.851 3.5 10.151 0.6 8.35105 0.9C7.15105 1.1 5.95105 3.1 4.85105 6C4.05105 8.1 8.35105 12.7 7.55105 15.3C6.85105 17.7 4.75105 18.9 3.25105 20.9C2.25105 22.2 5.25105 35.2 3.25105 40.1C2.65105 41.6 1.25105 41.8 0.351048 43.1C-1.34895 45.6 3.45105 62.1 7.75105 66.4C8.75105 67.4 15.751 69.9 21.551 75.9C23.351 77.8 22.751 81.6 24.651 83.8C26.451 85.9 31.251 83.8 33.151 85.9C36.751 89.9 34.651 101.1 37.451 105.2C39.251 107.8 41.651 106.2 43.551 107.8C45.451 106.4 48.151 104.2 51.551 104.1C54.351 104.1 56.551 106.8 59.851 107.1C63.351 107.4 67.951 105.1 71.051 103.5C77.451 107.9 86.851 110.4 88.251 111C92.651 106.4 101.451 88.4 101.651 83.4C102.051 75.4 90.651 72.6 94.051 68C96.351 64.8 101.851 65.3 103.151 62.1C104.951 58 104.651 53.2 103.951 49.6C103.151 45.2 93.051 48.6 90.151 42.5C88.151 38.1 93.151 31.8 97.751 32.6C102.951 33.5 102.751 38.9 111.551 37.9C118.751 37.1 117.151 34.3 120.951 30.3C115.651 27.4 110.551 22.7 108.151 23.9C104.151 25.9 98.751 28.4 93.551 27.9C86.351 27.1 80.751 20.9 78.951 19C72.151 11.6 68.751 6.8 63.451 5.8C59.451 5 51.751 6.4 50.151 6.7C45.051 7.8 40.451 4 37.651 3.4C33.551 2.5 30.751 2.7 29.151 3.4C28.251 3.8 27.651 4.7 26.751 4.9C24.351 5.3 21.151 1.6 18.651 0Z"/>
  </g>
 </g>
</svg>
