<?xml version="1.0" encoding="utf-8"?>
<!-- Generator: Adobe Illustrator 25.2.3, SVG Export Plug-In . SVG Version: 6.00 Build 0)  -->



<svg version="1.2" baseProfile="tiny" id="Calque_1"
	 xmlns="http://www.w3.org/2000/svg" xmlns:xlink="http://www.w3.org/1999/xlink" x="0px" y="0px" viewBox="0 0 259 193"
	 overflow="visible" xml:space="preserve">


	 <style>



</style>
<a>
	<g id="auvergne">
		<path class= "st" stroke="yellow" stroke-width="3" fill="red" d="M91.45,28.3c-1.1-2.2-1.6-5.4-2.4-7.8c-0.5-1.4-1.2-2.6-2-2.8c-1.9-0.6-4-0.3-6.2-0.2
			c-2.6,0-5.2-0.1-7.5-0.3c-5.1-0.4-9-1.7-12-3.3c-2.1-1.1-3.4-2.2-4.2-2.8c-1.5,1.9-2.7,2.7-4.3,3.4c-2.5,1-10.2-0.2-12,1.9
			c-1.3,1.6-0.4,5.3-0.6,7.5c-0.2,2.5-0.5,2.5-0.8,2.9c-1.5,3.1-9.9,2-11.3,5c-0.8,1.6-1.4,4.6-1.9,6.3c-0.4,1.4-0.6,1.6-1.2,2.2
			c3.2,3.9,10.4,5.1,12.5,9c2,3.6,0.6,8.5,1.1,10.8c2.9,13.1-7.2,8.9-7.8,15.3c-0.8,8.3,6.7,19.8,6.5,24.4c-0.2,3-10,4.5-13.9,8.2
			c-5.2,4.8-4.8,12.7-4.8,15.2c0,3.2-2.4,6.2-3.7,7.9c0.4,2.2,0.9,4.3,1.4,6c0.9,3.1,1.2,7.4,1.4,9.5c0.4,4.2,0.4,4.8,1.9,5.4
			c0.8,0.3,1.8-1,2.9-2c0.8-0.7,1.6-1.2,2.1-1.3c1-0.3,2.6-0.8,4.2-1.1c1.8-0.3,3.6-0.3,4.7-0.9c7-3.5,6.9-14.7,9.8-14.4
			c3.8,0.4,6.8,4.7,8.1,6.8c3.6,5.8,4.2,9.2,4.8,10.5c0.6-2.5,2.1-5.6,2.9-6.8c1.6-2.4,3.6-5.4,6.1-6.5c0.4-0.2,1.1-0.3,1.5-0.4
			c0.7-0.2,1.3-0.5,1.9-0.7c1.3-0.4,2.5-1,3.7-1.3c0.5-0.1,1-0.1,1.4-0.1c1.7-0.2,3.5,2.6,5.5,4.5c1.1,1.1,2.2,1.5,2.7,1.4
			c0.6-0.1,1.7-1.7,2.5-2.7c0.4-0.5,0.9-0.7,1-0.7c1.1-0.2,4.7,2.9,6.1,3.8c4.7,3,6.9,4,9.2,5.5c-0.2-1.1-0.5-3.2-0.5-3.7
			c0.9-10,17-5.7,16-15.5c-0.6-5.5,15.7-13.4,10.9-13.6c-3.1-0.1-5.8-0.2-8-0.3c-3-0.2,3.3-9.5,0.5-9.4c-3.5,0.1-6.8,0.4-9.7,1
			c-10.7,2.4-12.2,0.1-10.6-9.3c1.6-10-9.2-15.2-10-17.9c-3-9.8,2.2-9.2,3.2-15.9c0.7-4.6-2.1-10.8-1.3-12.4
			c0.7-1.4,4.7-4.6,7.6-4.6c0.3-0.8,0.5-1.6,0.9-2.9c0.3-0.9,0.4-2.5,0.1-3.2c-0.6-1.6-2.9-3.3-4.8-5
			C93.75,31.3,92.35,29.9,91.45,28.3z"/>
	</g>
</a>
<a>
	<g id="rhone_alpes">
		<path class="str" stroke="purple" stroke-width="3" fill="green" d="M160.65,31.7c1.1,4.8,4.7,6.8,6.3,9.9c1.8,3.4,6.9-8.3,8.9-5.5s4.5,3,6.5,4.8c3.3,3.1,10-9.5,14-7.8
			c0,0.5,0.2,1.4,0.5,2.1c0.8,1.6,3.8,2.8,0.9,6.1c-5.9,6.8-4.7,8.6,0.4,9.6c7.6,1.4,10.5-8.7,10.2-12.6c2-2.1,7.2-4.6,8-4.8
			c4.4-1.1,5.1-1.1,11.4,0.4c1.5,8.4,4.5,15,6.1,17.9c0.8,1.4,9.6,8.3,9.6,8.3s-3.3,2.7-4.9,5c-5.2,7.4-0.2,16.8,5,21.2
			c4.8,4.1,5.5,10.2,5.2,13.1c-0.6,7-6.9,11.2-11.5,13.5c-6.7,3.4-8.3,5.5-8.6,6.9c-1.3,0-2.6-0.2-4-0.7c-14.1-5-18.2-1.2-19.2,0.1
			c-2.3,2.9,10.9,9.4,7.5,13.1c-2.2,2.3-10.1-0.8-12.4,1.8c-7.7,8.7-14.8,16.3-20.3,22c-2,2-4.8,2.4-6.7,3.1
			c-2.5,0.8-3.6,1.7-0.9,2.6c9,2.8,10.7,13.1,11.8,15.3c4.5,8.8-14.9,4.4-20.2,3.9c-3.6-0.3-1.3-8.2-4.3-9
			c-4.9-1.2-11.1,5.3-13.5,6.1c-1.9,0.7-3.6-3.6-5.5-4.3c-2.3-0.9-5.2-0.2-7.5-1.1c-5.5-2.2-14.8,1.6-19.3,1.5
			c-2.1-0.1-5.5-0.8-6.5-4.2c-3.1-10.1-7.7-24.8-7.4-28c0.9-10,17-5.7,16-15.5c-0.6-5.5,15.7-13.4,10.9-13.6c-3.1-0.1-5.8-0.2-8-0.3
			c-3-0.2,3.3-9.5,0.5-9.4c-3.5,0.1-6.8,0.4-9.7,1c-10.7,2.4-12.2,0.1-10.6-9.3c1.6-10-9.2-15.2-10-17.9c-3-9.8,2.2-9.2,3.2-15.9
			c0.7-4.6-2.1-10.8-1.3-12.4c0.9-1.8,6.7-6.1,9.4-4.1c3.2,2.4,4,8,7.5,9.4c4.3,1.7,12.1-3.9,12.9-5.2c1.4-2.2,1.9-5.9,3.4-7.4
			c3.2-3.2,10.8,1,13.1,0.6c2-0.3-1.9,5.6,1.1,6c0.9,0.1,1.4-1,2-1.7c2.1-2.6,1-12.4,2.9-14.7c1.7-2,3.3-2.8,4.6-4.4
			c1.2-1.4,3.5,0.5,6.1,1.6C157.15,30.1,160.45,31,160.65,31.7z"/>
	</g>
</a>
</svg>
